<svg version="1.2" xmlns="http://www.w3.org/2000/svg" viewBox="0 0 120 119" width="120" height="119"><style>.a{fill:#fff}</style><path fill-rule="evenodd" class="a" d="m55.2 15.2c-9.8 0-9.8-15.2 0-15.2q28.3 0 56.5 0c4.2 0 7.7 3.5 7.7 7.6q0 28.3-0.1 56.6c0.1 9.8-15.2 9.8-15.2 0q0-24.5 0-49-24.4 0-48.9 0zm12.1 16.6c5.6-5.6 14.6-5.6 20.2 0 5.6 5.6 5.6 14.6 0 20.2-5.6 5.6-14.6 5.6-20.2 0-5.6-5.6-5.6-14.6 0-20.2zm-31.3 31.4c5.6-5.6 14.6-5.6 20.2 0 5.6 5.5 5.6 14.6 0 20.2-5.6 5.6-14.6 5.6-20.2 0-5.6-5.6-5.6-14.6 0-20.2zm-31.3 31.3c5.5-5.6 14.6-5.6 20.2 0 5.5 5.6 5.5 14.6 0 20.2-5.6 5.6-14.7 5.6-20.2 0-5.6-5.6-5.6-14.6 0-20.2z"/></svg>