<svg version="1.2" xmlns="http://www.w3.org/2000/svg" viewBox="0 0 60 74" width="52" height="64"><style>.a{fill:#5b5b5b}</style><path class="a" d="m-0.1 37.8c-0.2-0.1 2-3.6 6.1-9.8 4.2-6.3 10.2-15.1 17.6-26l0.4-0.5h0.6c9.7-0.3 21-0.6 33.2-1l0.7-0.1 0.5 0.6c8.2 10.5 17.2 22.1 26.6 34.2l0.8 0.9-0.7 0.9c-8.7 12.4-17.1 24.2-24.8 35.1l-0.4 0.6h-0.7c-12.3 0.2-23.5 0.4-33.3 0.5h-0.6l-0.4-0.4c-8-10.6-14.5-19.3-18.9-25.3-4.5-6.1-6.9-9.5-6.7-9.7 0.2-0.1 3 3 7.7 8.8 4.8 5.8 11.6 14.3 19.8 24.7q-0.4-0.2-0.9-0.5c9.7-0.3 21-0.6 33.2-1q-0.5 0.3-1.1 0.6c7.6-10.9 15.9-22.8 24.5-35.2q0.1 0.9 0.1 1.9c-9.4-12.1-18.3-23.7-26.5-34.3q0.6 0.3 1.2 0.6c-12.2 0.2-23.5 0.4-33.3 0.5q0.5-0.3 1-0.5c-7.7 10.7-14 19.4-18.5 25.3-4.4 6-7 9.3-7.2 9.1z"/><path class="a" d="m59.8 71.2c-0.7 0.6-11.8-12.5-24.8-29.2q-1.6-2.1-3-4 0.6 0.3 1.2 0.6c-18.8 0.3-33.3 0-33.3-0.8 0-0.8 14.4-1.8 33.2-2.3h0.8l0.5 0.6q1.5 1.9 3.1 4c13 16.6 22.9 30.6 22.3 31.1z"/><path class="a" d="m33.2 37c-0.7-0.4 4.2-8.7 11-18.4 6.8-9.7 12.9-17.2 13.6-16.7 0.8 0.5-4.2 8.8-11 18.5-6.8 9.7-12.9 17.1-13.6 16.6z"/></svg>