<svg version="1.2" xmlns="http://www.w3.org/2000/svg" viewBox="0 0 550 754" width="173" height="237"><style>.a{fill:#fff}</style><path class="a" d="m428.6 550.4q6-14.1 12-28.2 14.5-33.8 28.9-67.7 17.5-40.9 35-81.8 15.1-35.4 30.2-70.7 7.3-17.2 14.6-34.4 0.1-0.2 0.2-0.4c0.5-1.1 0.5-2.2-0.4-3.1q-13.1-13.1-26.3-26.3-31.4-31.3-62.8-62.7-38-37.9-75.9-75.8-32.9-32.8-65.7-65.6c-10.6-10.6-21-21.6-32-32q-0.2-0.2-0.4-0.4c-0.9-0.9-2-0.8-3-0.4q-14.1 6-28.2 12-33.9 14.5-67.9 28.9-40.9 17.4-81.8 34.9-35.5 15.1-70.9 30.2-11.6 4.9-23.2 9.9c-3.7 1.5-7.6 2.9-11.1 4.7q-0.3 0.1-0.5 0.2c-2.9 1.2-0.4 5.6 2.5 4.3q14.1-6 28.2-12 33.9-14.4 67.8-28.9 41-17.4 81.9-34.8 35.5-15.2 70.9-30.3 11.6-4.9 23.2-9.8c3.6-1.6 7.7-2.8 11.1-4.8 0.2 0 0.3-0.1 0.5-0.2q-1.5-0.2-3.1-0.3 13.2 13.1 26.4 26.3 31.4 31.3 62.8 62.7 38 37.9 75.9 75.8 32.8 32.8 65.7 65.6 10.8 10.8 21.7 21.7 3.4 3.4 6.7 6.7c1.2 1.2 2.3 2.6 3.6 3.6 0.1 0.1 0.3 0.2 0.4 0.4q-0.2-1.5-0.4-3-6 14-12 28.1-14.5 33.9-28.9 67.7-17.5 40.9-35 81.8-15.1 35.4-30.2 70.8-7.3 17.1-14.6 34.3-0.1 0.2-0.2 0.5c-1.3 2.9 3 5.4 4.3 2.5z"/><path class="a" d="m-0.5 124.2q1.1 4.5 2.3 9 3.2 12.3 6.4 24.6 4.7 18.1 9.5 36.3 5.7 22.1 11.5 44.3 6.3 24.3 12.7 48.5 6.3 24.5 12.7 49 6 22.9 11.9 45.7 5.1 19.3 10.1 38.6 3.6 13.9 7.2 27.8c1.1 4.3 2.2 8.8 3.4 13.1q0.1 0.3 0.2 0.6c0.1 0.4 0.4 0.7 0.8 0.8q4.6 1.2 9.1 2.4 12.2 3.2 24.5 6.4 18.2 4.7 36.3 9.4 22.3 5.8 44.5 11.6 24.3 6.3 48.6 12.6 24.5 6.3 49 12.7 22.9 6 45.7 11.9 19.3 5 38.7 10 13.9 3.6 27.8 7.3c4.3 1.1 8.7 2.3 13.1 3.4q0.3 0.1 0.6 0.1c1.6 0.4 2.2-2 0.7-2.4q-4.5-1.2-9-2.3-12.3-3.2-24.6-6.4-18.1-4.7-36.3-9.4-22.3-5.8-44.5-11.6-24.3-6.3-48.6-12.6-24.5-6.4-49-12.8-22.9-5.9-45.7-11.8-19.3-5.1-38.6-10.1-13.9-3.6-27.8-7.2-4.4-1.1-8.7-2.3c-1.5-0.3-3-0.9-4.5-1.1-0.2-0.1-0.4-0.1-0.6-0.2q0.4 0.5 0.9 0.9-1.2-4.5-2.4-9-3.2-12.3-6.4-24.6-4.7-18.2-9.4-36.3-5.8-22.2-11.6-44.3-6.3-24.3-12.6-48.6-6.4-24.5-12.8-49-5.9-22.8-11.9-45.7-5-19.3-10-38.6-3.6-13.8-7.3-27.7c-1.1-4.4-2.1-8.8-3.4-13.1q-0.1-0.3-0.1-0.6c-0.4-1.5-2.8-0.9-2.4 0.7z"/><path class="a" d="m226.6 752.1q6-14.1 12.1-28.1 14.4-33.9 28.9-67.8 17.4-40.9 34.9-81.7 15.1-35.5 30.2-70.9 7.4-17.1 14.7-34.2 0.1-0.3 0.2-0.5c0.4-1 0.4-2.2-0.4-3q-13.2-13.2-26.3-26.3-31.4-31.3-62.7-62.6-38.1-38.1-76.3-76.2-32.7-32.7-65.5-65.4c-10.6-10.6-21-21.6-31.9-31.9q-0.3-0.2-0.5-0.5c-2.3-2.2-5.8 1.3-3.5 3.6q13.1 13.1 26.3 26.2 31.3 31.4 62.7 62.7 38.1 38 76.2 76.1 32.8 32.7 65.6 65.5 10.8 10.8 21.7 21.6 3.3 3.4 6.7 6.8c1.1 1.1 2.2 2.5 3.5 3.5 0.2 0.1 0.3 0.3 0.4 0.4q-0.2-1.5-0.4-3-6 14-12 28.1-14.4 33.9-28.9 67.8-17.5 40.8-34.9 81.7-15.1 35.5-30.3 70.9-7.3 17.1-14.6 34.2-0.1 0.2-0.2 0.5c-1.2 2.9 3.1 5.5 4.3 2.5z"/><path class="a" d="m-112.5 663.9q2.7-2.7 5.4-5.4 7.4-7.3 14.8-14.7 10.8-10.8 21.7-21.7 13.2-13.2 26.5-26.4 14.5-14.5 29-29 14.6-14.7 29.3-29.3 13.7-13.7 27.4-27.4 11.5-11.5 23.1-23 8.3-8.3 16.5-16.6c2.7-2.6 5.3-5.2 7.9-7.9q0.2-0.1 0.4-0.3c1.1-1.1-0.7-2.9-1.8-1.8q-2.7 2.7-5.4 5.4-7.4 7.4-14.8 14.8-10.8 10.8-21.7 21.7-13.2 13.2-26.5 26.4-14.5 14.5-29 29-14.6 14.6-29.3 29.3-13.7 13.7-27.4 27.4-11.5 11.5-23.1 23-8.3 8.3-16.6 16.6c-2.6 2.6-5.2 5.2-7.8 7.8q-0.2 0.2-0.4 0.4c-1.1 1.1 0.7 2.9 1.8 1.7z"/><path class="a" d="m347.2 469.4q2.7-2.7 5.4-5.4 7.4-7.4 14.7-14.7 10.9-10.9 21.7-21.7 13.3-13.2 26.5-26.5 14.5-14.5 29-28.9 14.7-14.7 29.4-29.4 13.7-13.6 27.4-27.3 11.5-11.5 23-23 8.3-8.3 16.6-16.6c2.6-2.6 5.3-5.2 7.9-7.9q0.2-0.1 0.3-0.3c2.3-2.3-1.2-5.8-3.5-3.6q-2.7 2.8-5.4 5.5-7.4 7.3-14.8 14.7-10.8 10.8-21.7 21.7-13.2 13.2-26.5 26.4-14.5 14.5-29 29-14.6 14.7-29.3 29.3-13.7 13.7-27.4 27.4-11.5 11.5-23.1 23-8.3 8.3-16.6 16.6c-2.6 2.6-5.2 5.2-7.8 7.8q-0.2 0.2-0.4 0.4c-2.2 2.2 1.3 5.8 3.6 3.5z"/><path class="a" d="m226.3 752.6q2.7-2.7 5.4-5.4 7.3-7.4 14.7-14.7 10.9-10.9 21.7-21.7 13.3-13.2 26.5-26.5 14.5-14.4 29-28.9 14.7-14.7 29.4-29.4 13.7-13.6 27.4-27.3 11.5-11.5 23-23 8.3-8.3 16.6-16.6c2.6-2.6 5.3-5.2 7.9-7.9q0.1-0.1 0.3-0.3c2.3-2.3-1.2-5.8-3.5-3.5q-2.7 2.7-5.4 5.4-7.4 7.3-14.8 14.7-10.8 10.8-21.7 21.7-13.2 13.2-26.5 26.4-14.5 14.5-29 29-14.7 14.7-29.3 29.3-13.7 13.7-27.4 27.4-11.5 11.5-23.1 23-8.3 8.3-16.6 16.6c-2.6 2.6-5.2 5.2-7.8 7.8q-0.2 0.2-0.4 0.4c-2.3 2.3 1.3 5.8 3.6 3.5z"/><path class="a" d="m283 0.9q-13.3 5.7-26.6 11.3-31.9 13.6-63.8 27.2-39.4 16.8-78.7 33.5-35.5 15.1-70.9 30.2-20.4 8.7-40.7 17.3c-1.6 0.7-2.9 1.2-4.2 2.5q-4.8 4.8-9.7 9.7-22 22-44 43.9-29.9 29.9-59.8 59.8-27.7 27.7-55.5 55.3-15.3 15.4-30.7 30.8-0.7 0.7-1.5 1.4c-2.2 2.3 1.3 5.8 3.6 3.5q10.8-10.7 21.6-21.5 25.6-25.6 51.2-51.2 30.3-30.3 60.6-60.5 24.9-24.9 49.9-49.8 7.2-7.2 14.4-14.4 1.8-1.8 3.5-3.6 0.3-0.3 0.7-0.6c0.2-0.2-0.9 0.4-0.3 0.2 1-0.2 2-0.8 3-1.2q3.1-1.4 6.2-2.7 10.5-4.4 21-8.9 32.8-14 65.7-28 39.5-16.8 78.9-33.6 34.7-14.8 69.4-29.6 18.7-8 37.5-15.9 0.8-0.4 1.7-0.8c2.9-1.2 0.4-5.5-2.5-4.3z"/><path class="a" d="m225.2 748.4q-4.6-1.1-9.1-2.3-12.2-3.2-24.5-6.4-18.2-4.7-36.3-9.4-22.3-5.8-44.5-11.6-24.3-6.3-48.6-12.6-24.5-6.4-49-12.8-22.9-5.9-45.7-11.8-19.4-5-38.7-10.1-13.9-3.6-27.8-7.2c-4.3-1.1-8.7-2.7-13.1-3.4q-0.3-0.1-0.6-0.2 0.9 0.9 1.7 1.8-1.1-4.5-2.3-9-3.2-12.3-6.4-24.6-4.8-18.2-9.5-36.3-5.8-22.2-11.5-44.3-6.3-24.3-12.7-48.6-6.4-24.5-12.7-49-6-22.8-11.9-45.7-5.1-19.3-10.1-38.6-3.6-13.8-7.2-27.7c-1.2-4.4-2.2-8.8-3.4-13.1q-0.1-0.3-0.2-0.6c-0.8-3.1-5.6-1.8-4.8 1.3q1.2 4.5 2.4 9.1 3.1 12.2 6.3 24.5 4.8 18.2 9.5 36.3 5.8 22.2 11.6 44.4 6.3 24.2 12.6 48.5 6.4 24.5 12.8 49 5.9 22.8 11.9 45.7 5 19.3 10 38.6 3.6 13.9 7.2 27.7c1.2 4.4 2.2 8.8 3.5 13.2q0 0.2 0.1 0.5c0.2 0.8 0.9 1.5 1.8 1.8q4.5 1.1 9 2.3 12.2 3.2 24.5 6.4 18.2 4.7 36.3 9.4 22.3 5.8 44.6 11.6 24.2 6.3 48.5 12.6 24.5 6.4 49 12.7 22.9 6 45.7 11.9 19.4 5 38.7 10.1 13.9 3.6 27.8 7.2c4.4 1.1 8.7 2.4 13.2 3.4q0.2 0.1 0.5 0.2c3.1 0.8 4.5-4.1 1.4-4.9z"/><path class="a" d="m-200 327.7q13.2-5.6 26.5-11.3 31.9-13.6 63.9-27.2 39.3-16.7 78.6-33.5 35.5-15.1 71-30.2 20.3-8.6 40.6-17.3c1.6-0.7 3-1.2 4.2-2.4q4.9-4.9 9.7-9.7 22-22 44-44 29.9-29.9 59.9-59.7 27.7-27.7 55.4-55.4 15.4-15.4 30.8-30.7 0.7-0.7 1.4-1.4c2.3-2.3-1.3-5.9-3.6-3.6q-10.7 10.8-21.5 21.6-25.6 25.6-51.3 51.1-30.3 30.3-60.6 60.6-24.9 24.9-49.8 49.8-7.3 7.2-14.5 14.4-1.7 1.8-3.5 3.5-0.3 0.3-0.6 0.7c-0.3 0.2 0.8-0.4 0.2-0.3-1 0.3-2 0.9-2.9 1.3q-3.2 1.3-6.3 2.6-10.5 4.5-20.9 9-32.9 14-65.8 28-39.4 16.8-78.9 33.6-34.7 14.8-69.4 29.5-18.7 8-37.4 16-0.9 0.3-1.8 0.7c-2.9 1.3-0.4 5.6 2.6 4.3z"/></svg>