<svg version="1.2" xmlns="http://www.w3.org/2000/svg" viewBox="0 0 1479 469" width="1479" height="469"><style>.a{fill:#fff}</style><path fill-rule="evenodd" class="a" d="m152 16h43v7l-16.5 0.5-0.5 42.5h-9l-0.5-42.5-16.5-0.5zm49.8 0h10.2l0.5 36.2 3.3 2.9c2.7 2.5 4 2.9 8.7 2.9 4.7 0 6-0.4 12-5.8l0.2-36.2h9l-0.1 18.8c-0.1 18.8-0.1 18.9-2.8 23-1.9 2.8-4.4 4.9-7.5 6.3-2.7 1.2-7 2.2-9.8 2.3-2.7 0-6.7-0.3-8.7-0.7-2.1-0.4-5.4-2.2-7.4-4-2-1.7-4.3-4.8-5.2-6.7-1.2-2.6-1.7-8.1-2-21.3zm59.2 0.1l14.3-0.1c12.8 0 14.7 0.3 18.7 2.3 2.4 1.2 5.3 3.5 6.5 5.1 1.4 2 2.1 4.7 2.3 9.5 0.3 5.8 0 7.1-2.2 10.4-1.4 2.1-2.9 3.8-3.3 3.8-0.4 0-1.6 0.7-2.5 1.5-1.7 1.4-1.5 1.9 3.1 8.2 2.6 3.7 5.1 7.3 5.5 8 0.4 0.9-0.7 1.3-8.9 1.3l-10.5-15h-13v15h-10zm55 0h4c4 0 4.1 0.1 30.5 32.9l0.4-32.9h10.1v50l-8.5-0.2-27-33.6-0.5 33.8h-9zm-45 28c8.9-0.1 13.2-0.5 15.3-1.1 2.1-0.5 4.6-2.1 5.8-3.7 1.1-1.5 2-4.2 2-6-0.1-1.9-1-4.3-2.3-5.8-1.4-1.6-4-2.9-6.8-3.5-2.5-0.5-6.6-0.9-9.2-0.9h-4.8zm8.5 42.3c6.9 0.3 11.7 1 15.5 2.5 3 1.1 8.1 4.1 11.3 6.6 3.1 2.5 5.7 5.2 5.7 6.1 0 0.8-2.7 4-6.1 7.2-3.3 3.2-6.6 5.9-7.2 6.1-0.7 0.2-2.5-1-4.2-2.6-1.6-1.7-4.4-3.8-6.2-4.6-1.8-0.9-6.1-1.7-9.5-1.8-3.9-0.1-7.8 0.5-10.3 1.6-2.2 0.9-5.1 2.6-6.4 3.9-1.3 1.2-3.4 4.4-4.7 7.2-1.6 3.3-2.4 6.8-2.4 10.5 0 3.7 0.8 7.1 2.4 10.5 1.3 2.7 3.7 6.2 5.2 7.6 1.7 1.6 5.4 3.4 8.9 4.3 3.7 1 7.5 1.4 10 1 2.2-0.4 5.4-1.4 7-2.2 1.7-0.8 4.7-2.8 10.5-7.2l6.5 5.7c4.2 3.8 6.3 6.4 6.2 7.7-0.1 1.1-2.7 3.9-5.7 6.2-3 2.4-8 5.3-11 6.4-3.6 1.5-8.7 2.4-15 2.7-7.8 0.4-10.7 0.2-16.5-1.5-3.8-1.2-9.2-3.6-12-5.4-2.8-1.9-6.5-4.9-8.3-6.8-1.8-2-4.6-6.2-6.2-9.5-1.7-3.4-3.5-9.2-4.2-13-0.8-5.4-0.8-8.7 0.1-14q1.1-7.1 4.7-13c1.9-3.3 5.4-8 7.7-10.3 2.3-2.3 6.2-5.4 8.7-6.7 2.5-1.3 7-3.1 10-4 3.9-1.1 8.5-1.4 15.5-1.2zm82.5-0.3c4.1 0 10.2 0.6 13.5 1.5 3.3 0.9 8 2.7 10.5 4.2 2.5 1.4 6.7 4.7 9.4 7.2 2.6 2.5 5.8 6.4 7.1 8.6 1.3 2.2 3.1 6.9 4.1 10.5 1.1 4.5 1.5 8.8 1.2 14-0.3 4.4-1.5 9.9-2.9 13.5-1.4 3.8-4.2 7.9-7.5 11.5-2.8 3-7.6 6.9-10.5 8.7-3 1.7-8.1 3.9-11.4 4.7-3.3 0.9-9.4 1.6-13.5 1.6-4.1 0-10-0.8-13-1.7-3-0.8-7.3-2.5-9.5-3.6-2.2-1.1-5.4-3.2-7.2-4.6-1.7-1.5-5-5.1-7.2-8.1-2.3-3.1-4.9-7.8-5.9-10.5-1.2-3.5-1.7-8.1-1.6-15 0-7.9 0.5-11.2 2.2-15.5 1.3-3.4 4.4-8.1 8-12 3.3-3.6 8.1-7.8 10.8-9.2 2.7-1.5 7.4-3.4 10.4-4.2 3-0.8 8.9-1.6 13-1.6zm196.5 0.4c10.2 0.4 11.6 0.7 18 3.9 3.9 1.9 8.8 5.4 15 11.7l-4.5 4.5c-2.5 2.6-5.7 5.5-10 8.5l-3.7-3.2c-2.1-1.7-5.4-3.8-7.3-4.6-1.9-0.8-6.2-1.4-9.5-1.4-3.3 0-7.2 0.5-8.7 1.1-1.5 0.6-4.4 2.5-6.4 4.3-2.1 1.8-4.5 5.1-5.5 7.3-1.2 2.5-1.8 6.3-1.8 10.5 0 4.2 0.6 7.8 1.8 10.5 1 2.1 2.8 5 4 6.2 1.2 1.2 3.8 3.1 5.9 4.1 2 1.1 5.5 2.2 7.7 2.6 2.6 0.5 6 0.2 9.8-0.9 3.2-0.9 7.1-2.8 9-4.5 1.8-1.6 3.9-3 4.7-3 0.8-0.1 4.4 2.6 14.5 11.8l-4 4.1c-2.2 2.3-6.5 5.4-9.5 7-3 1.5-7.8 3.3-10.7 3.9-2.9 0.6-8.3 1.1-12 1.1-3.7 0-9-0.6-11.8-1.3-2.7-0.7-7-2.4-9.5-3.6-2.5-1.3-6-3.5-7.8-4.9-1.9-1.5-5-4.9-7-7.6-1.9-2.8-4.4-7.3-5.5-10-1-2.8-2.1-8.6-2.4-13-0.5-6.4-0.1-9.5 1.5-15 1.4-4.5 3.8-9.3 6.6-13 2.4-3.3 5.7-7 7.3-8.1 1.5-1.2 4.4-3 6.3-4 1.9-1 6-2.6 9-3.6 4.5-1.5 7.6-1.8 16.5-1.4zm-119.5 0.6l36.5 44.6 1-44.1h21v83l-17 0.6-37-45-1 44.4h-21l-0.1-40.5c-0.1-22.3 0-41.1 0.2-41.8 0.3-0.9 2.9-1.2 17.4-1.2zm-174 2.2c-2.5 0.8-6.7 2.4-9.4 3.8-2.7 1.3-6.8 4.3-9 6.5-2.3 2.2-5.4 6-6.8 8.5-1.5 2.4-3.4 7.4-4.4 11-1.1 4.6-1.4 8.4-1 13.2 0.3 3.7 1.4 8.9 2.4 11.5 1 2.6 3.4 7 5.4 9.8 1.9 2.7 6.2 6.7 9.4 8.9 3.3 2.2 8.6 4.8 11.9 5.8 4.7 1.5 8.2 1.8 16 1.6 9.1-0.4 10.7-0.7 17.5-4.1 4.1-2 8.9-5 10.5-6.7l3-3-12-10.8c-5.4 4.9-8.8 7-11 7.7-2.2 0.8-6 1.4-8.5 1.4-2.5 0.1-6.1-0.2-8-0.6-1.9-0.4-5.4-2.1-7.7-3.7-2.4-1.7-5.5-5.2-7-7.8-1.8-3.2-2.8-6.7-3.1-10.7-0.2-3.4 0.1-7.8 0.7-10 0.5-2.2 2.4-6 4.1-8.3 2-2.8 4.8-5.1 8.3-6.7 3.9-1.9 6.9-2.5 12-2.5 3.7 0 8.2 0.5 10 1.3 1.8 0.7 4.8 2.7 6.7 4.4l3.5 3 12-10.7c-5.4-5.5-10.1-8.5-14-10.2-6.1-2.8-8.3-3.3-17-3.5-6.1-0.2-11.7 0.2-14.5 0.9zm84 0.4c-3 0.8-7.5 2.6-10 4.1-2.5 1.5-6.4 4.6-8.7 7-2.4 2.3-5.7 7.3-7.5 11-3.1 6.3-3.3 7.4-3.3 17.3 0 9.4 0.3 11.1 2.9 16.5 1.5 3.3 4.2 7.8 6 10 1.8 2.1 5.7 5.5 8.7 7.4 3 1.9 8 4.3 11.2 5.3 3.4 1 8.9 1.8 13.5 1.8 4.2 0 10.4-0.7 13.7-1.6 3.3-0.8 8.4-3 11.4-4.7 2.9-1.8 6.9-5.1 8.9-7.2 1.9-2.2 4.9-7 6.6-10.5 2.9-6.1 3.1-7.3 3.1-17 0-8.8-0.4-11.4-2.3-15.5-1.2-2.8-3.5-6.8-5-9-1.5-2.1-5.4-5.9-8.7-8.3-3.5-2.6-8.7-5.2-12.5-6.3-4.3-1.3-9.2-2-14.5-1.9-4.4 0-10.5 0.7-13.5 1.6zm193 0.1c-3 1-7.9 3.4-10.9 5.3-3 1.9-6.9 5.3-8.7 7.5-1.8 2.2-4.5 6.7-6.1 10-2.5 5.3-2.8 7-2.8 16.5 0 9.6 0.3 11 3.1 17 1.7 3.5 4.4 8 6 9.9 1.6 1.9 5.4 5 8.4 7 3 2 8.4 4.4 12 5.5 5.1 1.4 8.7 1.7 16 1.3 7.9-0.4 10.6-1 16-3.6 3.6-1.6 8.3-4.5 10.4-6.3l3.9-3.3c-8.1-7.8-10.9-10.2-11.4-10.3-0.5-0.1-2.3 0.9-4.1 2.4-1.8 1.4-4.9 3.3-6.8 4.1-1.9 0.8-6.2 1.5-9.5 1.6-3.3 0-7.8-0.6-10-1.3-2.2-0.8-5.5-2.8-7.4-4.5-1.9-1.7-4.5-5.3-5.7-8-1.7-3.5-2.4-6.9-2.4-11 0.1-3.3 0.6-7.8 1.3-9.9 0.7-2.2 2.6-5.6 4.3-7.5 1.7-2 5.1-4.7 7.5-5.9 3.3-1.7 6.2-2.2 11.7-2.2 5.1 0 8.3 0.5 11 1.8 2 1.1 5.1 3 6.7 4.4l3 2.6 11.6-11.3c-4.3-4.4-9-7.3-13.1-9.3-7-3.4-8.2-3.7-18-4-7.9-0.2-11.8 0.2-16 1.5zm77.1-1.8l60.4 0.6 0.5 14.5h-42v17l36.5 0.5v14l-36.5 0.5v18h43v15h-62zm80.2-0.2l21.7 0.4c15.7 0.4 23 0.9 26.6 2.1 2.7 0.8 7 3.1 9.5 4.9 2.7 2.1 5.6 5.5 7.3 8.8 2.3 4.3 2.9 7 3 12.5 0.1 4.5-0.4 8.6-1.5 11.5-1.1 2.9-3.5 6.2-7 9.3-2.9 2.6-7.3 5.5-9.8 6.4-3 1-9.1 1.7-32 2.3v22h-18zm73.8 0.2h69v15h-25v65h-19v-65h-25zm-350 81h18l0.5-48.2 39.1 47.7 15.4 0.5v-80h-18.1l-0.4 48.2-39.1-47.7-15.3-0.6zm-345-70.9c2.4-0.1 6 0.4 8 0.9 1.9 0.5 5.7 2.4 8.4 4.2 3.6 2.4 5.8 4.9 7.8 8.8 2.3 4.4 2.8 6.8 2.8 12-0.1 4.1-0.8 8-1.9 10.5-1 2.2-3.9 5.9-6.5 8.3-2.7 2.4-6.5 4.7-8.9 5.4-2.3 0.7-6.9 1.2-10.2 1.2-4.2-0.1-7.7-0.8-11.5-2.5-3.1-1.4-6.8-4-8.8-6.4-1.8-2.2-4.1-6.5-4.9-9.5-1-3.2-1.4-7.3-1.1-10 0.3-2.5 1.4-6.3 2.6-8.5 1.1-2.2 3.5-5.5 5.3-7.3 1.9-1.8 5.8-4.1 8.9-5.2 3-1 7.5-1.9 10-1.9zm-67.5 1l7 11.8c3.8 6.6 7.2 11.8 7.5 11.6 0.2-0.1 3.6-5.5 14.5-23.5h4.2c2.3 0 4.3 0.2 4.3 0.5 0 0.3-4.3 7.7-19 32.5v17h-9v-17.5l-9.5-15.7c-5.3-8.7-9.5-16-9.5-16.3 0-0.3 2.1-0.5 9.5-0.4zm106.5-0.1h9v15.3c0 8.4 0.4 16.9 1 19 0.5 2.1 2.1 4.6 3.7 5.7 2 1.5 4.2 2.1 8.3 2q5.4 0 7.6-1.8c1.2-0.9 2.7-2.8 3.5-4.2 0.9-1.8 1.3-7.2 1.4-36h9.5v15.8c0 10.7-0.5 17.3-1.5 20.7-1 3.5-2.6 6.1-5.5 8.8-2.4 2.2-5.6 4-7.8 4.4-2.1 0.4-6 0.7-8.7 0.7-2.8-0.1-7.1-1-9.5-2.1-2.5-1-5.5-3.2-6.6-4.8-1.2-1.7-2.7-4.6-3.3-6.5-0.7-2.1-1.2-10.1-1.2-20.2zm59 0h13.8c11.1 0 14.5 0.4 17.7 1.8 2.2 1 5.3 3.3 6.8 5 1.8 2.1 3 4.8 3.4 7.9 0.3 2.6 0.1 6.5-0.5 8.5-0.8 2.4-2.7 5.1-9.7 10.8l5.3 7.5c2.9 4.1 5.2 7.7 5.2 8 0 0.2-2.1 0.5-9.5 0.4l-10-14.9h-13.5v15h-9zm541 32c19.5-0.5 23.4-1.1 25.8-2.3 2-1.1 3.9-3.2 4.8-5.5 1.1-2.5 1.5-5.2 1.1-8.2-0.4-3.2-1.4-5.4-3.4-7.3-1.5-1.5-4.7-3.2-7-3.7-2.3-0.6-8.1-1-12.8-1h-8.5zm-354.5-27c4.6 0 8.4 0.6 11 1.8 2.2 1 5.6 3.6 7.5 5.8 2 2.3 4.1 5.8 4.8 8 0.6 2.1 1.2 6.7 1.2 10.1 0 3.5-0.6 7.7-1.3 9.5-0.7 1.8-3.1 5.2-5.2 7.6-2.3 2.5-5.8 5-8.5 5.9-2.4 1-6.7 1.7-9.5 1.7-2.7 0-7-0.7-9.5-1.6-2.8-1.1-6-3.4-8.8-6.5-2.3-2.7-4.7-6.4-5.2-8.3-0.5-2-1-6.3-1-9.8 0-3.4 0.6-7.7 1.4-9.5 0.7-1.8 2.8-5 4.7-7.1 1.9-2.2 5.2-4.8 7.4-5.8 2.7-1.2 6.4-1.8 11-1.8zm-5 1.9c-1.6 0.4-4.4 1.5-6.2 2.4-1.8 0.9-4.2 2.7-5.3 3.9-1.2 1.3-3 4-4 6-1.4 2.6-2 5.8-1.9 10.5 0 4.5 0.6 8.1 1.8 10.8 1.1 2.2 2.9 5 4 6.2 1.2 1.3 4.1 3.2 6.4 4.4 3 1.5 6.1 2.2 10.2 2.2 4.1 0 7.3-0.6 10-2 2.2-1.2 5.4-3.5 7-5.1 1.7-1.7 3.6-5 4.4-7.4 0.7-2.4 1.3-6.4 1.3-8.8 0-2.5-0.6-6.5-1.3-8.9-0.8-2.4-2.9-5.9-4.9-7.8-1.9-1.9-4.8-4-6.5-4.8-1.6-0.7-5-1.6-7.5-1.9-2.4-0.3-5.8-0.2-7.5 0.3zm-287.3 2.1c-2.3 1.2-5.3 3.6-6.5 5.3-1.7 2.5-2.2 4.6-2.2 10.3 0 5.8 0.5 7.8 2.1 10 1.2 1.6 3.7 3.9 5.5 5.2 2.9 2 4.4 2.3 10 2 5.3-0.3 7.3-0.9 10.3-3.1 2.4-1.8 4.2-4.3 5.3-7.5 1.2-3.3 1.5-6.1 1-9.2-0.4-2.5-1.4-5.5-2.2-6.8-0.8-1.2-3.1-3.5-5.1-5-2.7-2-5.2-2.8-8.8-3-3.7-0.3-6.3 0.3-9.4 1.8zm115.5-0.9c-0.4 0.9-0.6 5.5-0.4 10.4l0.2 9c7 0.5 10.8 0.3 13 0 2.2-0.3 5-1.4 6.3-2.3 1.2-1 2.6-3.1 3.1-4.7 0.4-1.7 0.4-4.5 0-6.3-0.6-2.1-1.9-3.7-3.9-4.7-1.6-0.9-6.3-1.8-10.3-2.2-6-0.5-7.5-0.3-8 0.8zm237.3 96.9c2.5 0 6.1 0.4 8 0.9 2 0.5 5.8 2.4 8.5 4.3 3.6 2.3 5.8 4.8 7.8 8.8 2.2 4.4 2.8 6.7 2.7 12 0 4-0.7 8-1.8 10.5-1 2.2-3.8 5.8-6.3 8-2.4 2.3-6.2 4.7-8.4 5.5-2.2 0.7-6.9 1.3-10.5 1.3-4.5 0-7.9-0.6-11.5-2.2-2.7-1.2-6-3.2-7.3-4.4-1.3-1.2-3.5-4.5-5-7.2-2.1-4-2.6-6.4-2.6-12 0-5.2 0.5-8.1 2.1-11 1.1-2.2 4-5.7 6.4-7.8 2.5-2.1 6.5-4.5 8.9-5.2 2.5-0.8 6.6-1.4 9-1.5zm-152 1h9v50h-9zm24 0h8.5l27 33.4 0.4-33.4h9.1v50h-3.7c-3.7 0-4.1-0.4-30.8-33.2l-0.5 33.2h-10zm54 0h43v7h-17v43h-9l-0.5-42.5-16.5-0.5zm150.3-0.1l9.8 0.6 11 24.2c6 13.4 10.9 24.5 10.9 24.8 0 0.2-2.1 0.5-9.5 0.5l-5-12.1h-25l-5 12.1h-4.7c-2.6 0-4.6-0.4-4.5-0.9 0.1-0.5 5.1-11.7 11.1-25zm-84.1 9.2c-2.3 1.1-5.3 3.5-6.5 5.2-1.7 2.5-2.2 4.6-2.2 10.3 0 5.8 0.5 7.8 2.1 10 1.2 1.6 3.7 3.9 5.5 5.1 2.6 1.8 4.9 2.3 9.4 2.3 5 0 6.7-0.5 10-2.8 2.5-1.7 4.7-4.4 5.8-7 1-2.3 1.7-5.8 1.7-7.7 0-2-0.6-5-1.3-6.8-0.8-1.8-2.7-4.4-4.3-5.9-1.6-1.5-4.1-3.2-5.6-3.8-1.5-0.6-4.4-1-6.5-1-2.1 0-5.7 0.9-8.1 2.1zm84.4 10.1c-2.1 5.1-4 9.8-4.2 10.5-0.3 0.9 1.9 1.3 8.6 1.3 8.1 0 9-0.2 8.5-1.8-0.3-1-2-5.7-3.8-10.5-1.8-4.8-3.7-8.7-4.2-8.7-0.6 0-2.7 4.1-4.9 9.2zm482.4 101.8h10v35h22v8h-32zm39 0h10v43h-10zm16.3-0.1l10.9 0.6 12.7 30 1.5-3.5c0.8-2 3.8-8.7 11.5-26.5l5.1-0.3c4.5-0.2 5-0.1 4.3 1.6-0.4 1-4.6 10.7-17.8 41.2h-10l-5.6-13.3c-3.1-7.3-7.3-17-9.2-21.5zm51.8 0.1h33v8h-23v9h21v8h-21v10h24v8h-34zm17.3 65c5.2 0 9.7 0.6 14 2 3.4 1.1 8.4 3.7 11.2 5.7 2.7 2.1 6.4 5.8 8.3 8.3 1.8 2.4 4.3 7.6 5.4 11.5 1.7 5.5 2 8.5 1.5 14.5-0.4 5.3-1.4 9.2-3.6 13.5-1.6 3.4-5 7.9-7.8 10.4-2.6 2.5-7.7 5.8-11.3 7.4-4.9 2.3-8.5 3.1-14.5 3.5-4.7 0.2-10.3-0.1-13.5-0.8-3-0.7-8.2-2.7-11.4-4.4-3.2-1.7-7.7-5.2-9.8-7.6-2.2-2.5-4.8-6.3-5.9-8.5-1-2.2-2.4-7.2-3.1-11-0.8-5.4-0.8-8.5 0.1-13 0.6-3.3 2-7.8 3.1-10 1-2.2 3.6-6 5.7-8.4 2.1-2.4 5.8-5.6 8.3-7 2.5-1.4 7-3.3 10-4.3 3.1-1 8.8-1.8 13.3-1.8zm272.7 0.3c8.3 0.2 10.3 0.7 16 3.4 3.6 1.7 7.9 4.5 12.5 9.4l-10.5 9.9-3.2-2.4c-1.8-1.3-4.4-3-5.8-3.7-1.4-0.7-4.5-1.6-7-2-2.5-0.4-6.5-0.4-9 0.1-2.5 0.5-6.4 2.3-8.7 3.9-2.8 2-5.1 4.9-6.8 8.3-1.7 3.7-2.5 7-2.5 11.3 0 4.6 0.6 7.2 2.8 11.5 1.7 3.3 4.4 6.6 6.8 8.2q3.9 2.8 9.9 3.6c3.6 0.5 7.8 0.4 10.5-0.2 2.5-0.5 6.4-2.5 13-7.6l10.5 9.8-3.5 3.6c-1.9 2-6.2 4.8-9.5 6.3-4.8 2.1-7.9 2.7-15.5 3.1-7.9 0.3-10.6 0-16-1.8-3.6-1.3-8.3-3.5-10.5-5-2.2-1.5-5.7-4.7-7.8-7.1-2.1-2.5-4.7-6.9-5.9-9.9-1.6-4.2-2.2-7.7-2.2-14.5 0-6.8 0.6-10.4 2.2-14.5 1.1-3.1 4.1-7.8 6.5-10.5 2.4-2.8 7.1-6.5 10.3-8.2 3.3-1.8 7.7-3.7 9.9-4.2 2.2-0.6 8.3-0.9 13.5-0.8zm-469.8 0.5l21.1 0.3c21.1 0.4 21.2 0.4 27.6 3.4 4 1.8 7.7 4.5 9.8 7 1.8 2.2 3.8 6 4.5 8.5 0.7 2.4 1.2 6.7 1.1 9.5-0.1 2.7-0.9 7-2 9.4-1 2.4-3.8 6.2-6.3 8.5q-4.6 4.1-10.5 5.8c-4.1 1.2-9.5 1.7-28.5 1.8v21h-17zm80 0l21.2 0.3c20.7 0.3 21.2 0.4 27.1 3.1 3.3 1.6 7.1 3.8 8.4 5 1.3 1.2 3.5 4.5 4.8 7.2 1.7 3.7 2.3 6.8 2.3 11.8 0 3.8-0.6 8.3-1.5 10.5-0.9 2-3 5.2-4.8 7.1-1.7 1.8-4.4 3.9-8.7 6.1l17 24-18.5 0.1-15-21.1h-15.5v21h-17zm174.1 0l22.6 0.4c21 0.4 23.1 0.6 28.7 2.8 3.3 1.3 8.2 4.2 11 6.5 3.4 2.8 6.1 6.3 8.5 11 3.3 6.4 3.5 7.3 3.5 16.9 0 9.3-0.3 10.7-3.2 16.6-1.9 4-4.8 8-7.5 10.3-2.4 2.1-6.8 5-9.8 6.4-3.1 1.4-8 2.9-11 3.4-3.1 0.5-14 0.9-43 0.9zm89.8 0.2h18v24.5c0 18.1 0.3 25.3 1.3 27.7 0.7 1.8 2.8 4.5 4.5 6 2.8 2.5 4 2.8 9.9 2.8 5 0 7.6-0.5 10-2 1.8-1.1 4.1-3.5 5-5.3 1.5-2.8 1.8-6.5 2-53.7h17.3v24.2c0 21.4-0.2 25.1-2 30.8-1.2 4.2-3.3 8-5.7 10.8-2.1 2.4-6.3 5.6-9.3 7-5 2.4-6.6 2.7-17 2.7-10.3 0-12.1-0.3-16.5-2.5-2.8-1.4-6.5-4-8.3-5.8-1.8-1.7-4.1-4.9-5.1-7-1.1-2-2.4-6.4-3-9.7-0.6-3.3-1.1-16-1.1-28.3zm160 0h65v14h-24v61h-17v-61h-24zm-313.2 14.3c-2.5 0.7-6.3 2.6-8.3 4.2-2.1 1.7-4.8 4.8-5.9 7-1.3 2.5-2.2 6.5-2.5 10.5-0.2 4.7 0.2 7.8 1.5 11 1 2.5 2.9 5.9 4.3 7.5 1.4 1.6 4.4 3.7 6.6 4.7 2.5 1.1 6.3 1.8 10.5 1.8 4.2 0 7.9-0.7 10.5-1.9 2.2-1 5.2-3.1 6.7-4.7 1.4-1.6 3.4-4.7 4.3-6.9 1-2.2 1.7-6.6 1.7-10 0-3.3-0.7-7.5-1.5-9.5-0.8-1.9-2.7-5-4.3-6.9-1.6-1.9-4.7-4.2-6.9-5.1-2.2-1-5.8-2-8-2.3-2.2-0.3-6.1 0-8.7 0.6zm-173.8 25.7c15.2 0 20.2-0.5 22.2-1.3 1.8-0.8 4.1-2.2 5-3.3 1-1 2.1-3.7 2.4-5.9 0.4-2.6 0-5.2-1-7.7-1-2.3-2.9-4.4-4.9-5.5-2.2-1.1-6.5-1.8-13.4-2.1l-10.1-0.4zm80 0c19.3 0.1 20.9-0.2 24-2.3 1.9-1.2 4.1-3.4 4.7-4.7 0.7-1.4 1.3-3.7 1.3-5.2 0-1.5-0.7-4.4-1.5-6.3-0.9-2-2.9-4.2-4.8-5.2-2.2-1.1-6.4-1.8-13.3-2.1l-10.2-0.4zm174 21c13.6 0 20-0.6 23.1-1.3 3.1-0.7 7.2-2.5 9.4-4.2 2.2-1.7 4.8-5 5.9-7.5 1.3-2.9 2-6.7 1.9-10.5 0-3.9-0.7-7.6-2.1-10.8-1.4-3-3.7-5.8-6.4-7.7-2.4-1.7-6.4-3.5-9-4-2.6-0.6-8.8-1-13.8-1h-9z"/></svg>