<svg version="1.2" xmlns="http://www.w3.org/2000/svg" viewBox="0 0 1358 467" width="1358" height="467"><style>.a{fill:#fff}</style><path fill-rule="evenodd" class="a" d="m95 0h37v9h-14v42h-9l-0.5-41.5-13.5-0.5zm42 0h9l0.5 37.2 2.8 2.4c1.7 1.6 3.9 2.4 6.2 2.4 2.3 0 4.5-0.8 9-4.8l0.3-37.2h9l-0.2 20.4c-0.1 19.1-0.2 20.7-2.2 23.3-1.1 1.5-3.6 3.8-5.5 5.1-2.7 1.8-4.8 2.3-10.4 2.3-5.6 0-7.7-0.5-10.5-2.3-1.9-1.3-4.5-4.3-5.8-6.8-2.1-4.2-2.2-5.8-2.2-23.3zm49 0.1h13.2c11 0 13.8 0.3 16.3 1.8 1.6 1 3.8 3.4 4.7 5.5 1 2 1.8 5.5 1.8 7.7 0 2.2-0.7 5.5-1.5 7.5-0.9 2-3 4.3-8.5 7.5l5.1 8.7c2.8 4.8 5.5 9.5 6 10.5 0.8 1.6 0.3 1.7-10.6 1.7l-5.8-10.5c-5.3-9.6-5.9-10.4-11.2-9.9l-0.5 20.5h-9zm49 0l11.5-0.1 18 36.5 0.4-36.5h9.1v51h-12l-17.9-36.5-0.1 36.5h-9zm-40 21.1c11.8-0.1 15.1-0.5 15.8-1.3 0.7-0.7 1.2-2.7 1.2-4.5 0-1.8-0.7-3.9-1.5-4.8-1.1-1-3.6-1.5-8.5-1.5h-7zm31.5 49.1c2.2 0 6.6 0.6 9.7 1.4 3.2 0.9 7.8 3 10.2 4.8 2.4 1.8 5.2 4.4 6.3 5.7 1.1 1.4 2.9 4.3 4.1 6.5 1.1 2.2 2.5 6.2 3.1 8.8 0.8 3.7 0.8 5.1-0.2 6.3-1 1.3-2.9 1.5-18.2 0.9l-2.5-4.9c-1.4-2.7-3.9-5.7-5.5-6.7-1.7-1-4.6-1.8-6.5-1.8-1.9 0-4.6 0.5-5.9 1.2-1.3 0.7-3.2 2.8-4.3 4.7-1.5 3-1.8 5.9-1.8 19.8 0 12.2 0.4 17.1 1.5 19.7 0.8 2 2.8 4.2 4.5 5 1.6 0.9 4.7 1.6 6.7 1.6 2.3 0 4.9-0.8 6.5-2 1.6-1.1 3.8-4.1 7.3-11.2l19 0.6-0.3 4c-0.1 2.2-1.6 6.9-3.2 10.3-1.7 3.4-4.9 8.1-7.3 10.4-2.3 2.3-6.2 5.1-8.7 6.2-3.6 1.7-6.5 2.1-14 2.1-8 0-10.4-0.4-14.9-2.5-3.1-1.4-7.2-4.4-9.5-7-2.2-2.4-4.9-6.5-6.1-9-1.8-4.1-2-6.4-2-28 0-23.4 0-23.5 2.7-29 1.4-3 4.4-7.1 6.5-9.1 2.1-2 4.9-4.2 6.3-4.9 1.4-0.7 4.7-1.9 7.5-2.6 2.7-0.6 6.8-1.2 9-1.3zm77.7 0c2.1 0 6.2 0.5 9 1.1 2.9 0.6 6.9 1.9 8.8 2.9 1.9 0.9 5.5 3.9 8.1 6.6 2.5 2.7 5.4 7.1 6.5 9.8 1.7 4.4 1.9 7.7 1.9 27 0 21.6-0.1 22.2-2.6 27.5-1.4 3.1-4.3 7.3-6.5 9.4-2.1 2.1-6.4 5-9.4 6.5-4.8 2.3-6.7 2.6-15 2.6-8.7 0-10.1-0.2-16.3-3.2-5.2-2.5-7.6-4.4-10.6-8.5-2.1-2.9-4.6-7.9-5.6-11.3-1.4-5-1.7-9.2-1.4-26 0.4-19.3 0.5-20.1 3.1-25.5 1.5-3 4.3-7.1 6.2-9.2 2-2.1 5.1-4.5 6.8-5.4 1.8-1 5.5-2.3 8.3-2.9 2.7-0.7 6.7-1.3 8.7-1.4zm171.3 0c2.2 0 6.6 0.6 9.7 1.4 3.2 0.9 7.8 3 10.2 4.8 2.4 1.8 5.2 4.4 6.3 5.7 1.1 1.4 2.9 4.3 4.1 6.5 1.1 2.2 2.5 6.2 3.1 8.8 0.8 3.7 0.8 5.1-0.2 6.3-1 1.3-2.9 1.5-18.2 0.9l-2.5-4.9c-1.4-2.7-3.9-5.7-5.5-6.7-1.7-1-4.6-1.8-6.5-1.8-1.9 0-4.6 0.5-5.9 1.2-1.3 0.7-3.2 2.8-4.3 4.7-1.5 3-1.8 5.9-1.8 19.8 0 12.2 0.4 17.1 1.5 19.7 0.8 2 2.8 4.2 4.5 5 1.6 0.9 4.7 1.6 6.7 1.6 2.3 0 4.9-0.8 6.5-2 1.6-1.1 3.8-4.1 7.3-11.2l19 0.6-0.3 4c-0.1 2.2-1.6 6.9-3.2 10.3-1.7 3.4-4.9 8.1-7.3 10.4-2.3 2.3-6.2 5.1-8.7 6.2-3.6 1.7-6.5 2.1-14 2.1-8 0-10.4-0.4-14.9-2.5-3.1-1.4-7.2-4.4-9.5-7-2.2-2.4-4.9-6.5-6.1-9-1.8-4.1-2-6.4-2-28 0-23.4 0-23.5 2.7-29 1.4-3 4.4-7.1 6.5-9.1 2.1-2 4.9-4.2 6.3-4.9 1.4-0.7 4.7-1.9 7.5-2.6 2.7-0.6 6.8-1.2 9-1.3zm-411.5 1.7c1.9 0.3 5 1.2 6.9 2.1 1.9 0.9 4.6 3.4 6 5.6 2.5 3.7 2.6 4.5 2.6 18 0 12.8-0.2 14.4-2.3 17.8-1.2 2.1-3.9 4.6-6.2 5.7-2.7 1.4-6.1 2.1-10.3 2.1-4.8 0-7-0.5-9.6-2.3-1.9-1.2-4.4-3.5-5.5-5.1-1.9-2.5-2.1-4.1-2.1-18.1 0-13.8 0.2-15.7 2-18.1 1.1-1.5 3.1-3.6 4.5-4.7 1.4-1 4.3-2.3 6.5-2.7 2.2-0.5 5.6-0.6 7.5-0.3zm314-0.8l27.5 56.3 1-55.8h19v91h-23l-27.5-55v26.5c0.1 20.5-0.2 26.8-1.2 27.8-0.9 0.8-4.1 1.2-18.3 0.7l-0.3-44.5c-0.1-24.4 0-45 0.3-45.7 0.3-0.9 3.6-1.3 22.5-1.3zm-368.5 1.1l4.5 10.4c2.5 5.8 4.7 10.5 5 10.6 0.3 0 2.5-4.6 9.6-20.6l10.4-0.5-15 31v20h-10v-20.5l-7-14.5c-3.8-7.9-7-14.8-7-15.2 0-0.4 2.1-0.7 9.5-0.7zm80.5-0.1h9l0.5 37.2 2.7 2.4c1.8 1.6 4 2.4 6.3 2.4 2.3 0 4.5-0.8 9-4.8l0.3-37.2h9l-0.2 20.5c-0.1 19-0.3 20.6-2.2 23.2-1.2 1.6-3.6 3.9-5.5 5.1-2.7 1.9-4.8 2.3-10.4 2.3-5.6 0-7.7-0.4-10.5-2.3-1.9-1.2-4.5-4.3-5.8-6.8-2.1-4.1-2.2-5.7-2.2-23.2zm49 0h13.2c11 0 13.8 0.3 16.3 1.8 1.6 1 3.8 3.5 4.7 5.5 1 2 1.8 5.5 1.8 7.7 0 2.2-0.7 5.6-1.5 7.5-0.9 2-3 4.3-8.5 7.5l5.1 8.7c2.8 4.9 5.5 9.6 6 10.5 0.8 1.6 0.3 1.8-10.6 1.8l-5.8-10.5c-5.3-9.7-5.9-10.5-11.2-10l-0.5 20.5h-9zm79.7 1c-2 0.6-5.4 1.8-7.5 2.9-2 1-5.2 3.4-7 5.2-1.8 1.9-4.3 5.4-5.5 7.9-2.1 4.3-2.2 5.7-2.2 28 0 20.6 0.2 24 1.8 27.5 1 2.2 3.3 5.7 5 7.9 1.8 2.1 5.7 5 8.7 6.5 4.7 2.2 6.8 2.6 14.5 2.6 7.7 0 9.8-0.4 14.7-2.8 3.6-1.6 7.1-4.3 9.2-7 1.9-2.3 4.3-6.2 5.4-8.7 1-2.5 2.2-6 2.5-7.8l0.7-3.2h-17c-3.2 7.2-5.3 9.8-7.3 11-1.9 1.2-5 2-7.5 2-2.3 0-5.6-0.7-7.2-1.5-1.8-0.9-3.8-3.2-5-5.8-1.7-3.6-2-6.4-2-20.7 0-14.2 0.3-17.1 1.9-20.5 1.3-2.6 3.2-4.6 5.5-5.8 2-0.9 5.3-1.7 7.3-1.7 2.1 0 5.2 0.9 7 2 2.1 1.3 4.1 3.9 5.5 7l2.3 5c14.2 0 16.5-0.4 16.5-1.3 0-0.6-0.9-3.9-2-7.2-1.1-3.3-3.7-8.3-5.8-11-2.5-3.3-5.7-6-9.3-7.8-3.9-2-7.3-2.9-12.4-3.2-3.9-0.2-8.7 0-10.8 0.5zm76.5 0.5c-2.9 0.8-7.2 2.8-9.7 4.5-2.5 1.7-5.9 5.1-7.5 7.7-1.7 2.7-3.5 7-4.1 9.8-0.7 3-1 12.8-0.8 24.5 0.3 17.2 0.6 20 2.5 24 1.1 2.5 3.6 6.2 5.5 8.3 1.8 2.2 5.9 5.1 8.9 6.5 4.8 2.3 6.7 2.7 15 2.7 8.2 0 10.2-0.4 15-2.7 3-1.4 7-4.3 8.9-6.5 1.9-2.1 4.4-5.8 5.5-8.3 1.9-4.1 2.1-6.3 2.1-27 0-18.8-0.3-23.1-1.7-26-0.9-1.9-3-5.4-4.7-7.8-2.2-2.9-5-5.1-9.4-7.2-4.5-2.2-8.2-3.2-13.2-3.5-4.6-0.3-8.9 0-12.3 1zm172.5-0.5c-2 0.6-5.4 1.8-7.5 2.9-2 1-5.2 3.4-7 5.2-1.8 1.9-4.3 5.4-5.5 7.9-2.1 4.3-2.2 5.7-2.2 28 0 20.6 0.2 24 1.8 27.5 1 2.2 3.3 5.7 5 7.9 1.8 2.1 5.7 5 8.7 6.5 4.7 2.2 6.8 2.6 14.5 2.6 7.7 0 9.8-0.4 14.7-2.8 3.6-1.6 7.1-4.3 9.2-7 1.9-2.3 4.3-6.2 5.4-8.7 1-2.5 2.2-6 2.5-7.8l0.7-3.2h-17c-3.2 7.2-5.3 9.8-7.3 11-1.9 1.2-5 2-7.5 2-2.3 0-5.6-0.7-7.2-1.5-1.8-0.9-3.8-3.2-5-5.8-1.7-3.6-2-6.4-2-20.7 0-14.2 0.3-17.1 1.9-20.5 1.3-2.6 3.2-4.6 5.5-5.8 2-0.9 5.3-1.7 7.3-1.7 2.1 0 5.2 0.9 7 2 2.1 1.3 4.1 3.9 5.5 7l2.3 5c14.2 0 16.5-0.4 16.5-1.3 0-0.6-0.9-3.9-2-7.2-1.1-3.3-3.7-8.3-5.8-11-2.5-3.3-5.7-6-9.3-7.8-3.9-2-7.3-2.9-12.4-3.2-3.9-0.2-8.7 0-10.8 0.5zm-110.7 88h16l0.2-61.5 30.3 61.5h20.5v-88h-16.1l-0.4 63.2-30.3-62.7-20.1-0.6zm171-88l58.5 0.5 0.5 15.5h-43v20h36v16l-35.5 0.5-0.5 19.5h43v16h-59zm77.1-0.1l21.7 0.4c17.6 0.3 22.3 0.7 25.4 2.1 2 0.9 5.2 2.9 7 4.5 1.8 1.6 4.3 5.3 5.6 8.3 1.7 3.8 2.3 7.2 2.3 11.9 0 4.6-0.6 8-2.3 11.9-1.4 3.2-4 6.8-6.4 8.8-2.2 1.8-6.2 4-9 4.8-3.1 0.9-9.3 1.5-28.5 1.5v34h-16zm74.9 0.1h64v16h-24v72h-16l-0.5-71.5-23.5-0.5zm-624.7 10.4c-2.8 2.4-2.8 2.6-2.8 14.1 0 11.5 0 11.7 2.7 14.1 1.6 1.4 4 2.4 5.8 2.4 2.1 0 4-0.9 6-3 2.9-2.9 3-3.3 3-13 0-6.4-0.5-11-1.4-12.7-0.8-1.5-2.1-3.1-3-3.5-0.9-0.4-3-0.8-4.6-0.8-1.7 0-4.1 1.1-5.7 2.4zm92.7 9.6c11.8 0 15-0.4 15.8-1.2 0.6-0.7 1.2-2.7 1.2-4.5 0-1.8-0.7-3.9-1.5-4.8-1.1-1-3.7-1.5-8.5-1.5h-7zm156.9-4c2.8 0 5.8 0.8 7.8 2 1.8 1.1 4 3.2 5 4.7 1.4 2.3 1.8 5.6 2.1 19.3 0.2 9.6-0.1 18-0.7 20-0.6 2-2.5 4.9-4.2 6.5-2.8 2.8-3.7 3-9.9 3-6 0-7.3-0.3-9.6-2.5-1.5-1.3-3.3-3.9-4.1-5.7-0.9-2.3-1.3-8-1.3-19.5 0-13.5 0.3-16.9 1.7-19.8 1-1.9 3.3-4.5 5.2-5.7 2.3-1.5 4.9-2.3 8-2.3zm316.1 22c23.8-0.5 24.2-0.5 26.5-3.2 1.9-2.1 2.5-3.9 2.5-7.8 0-3.8-0.6-5.6-2.5-7.7-2.3-2.7-2.7-2.8-14.4-3.1l-12-0.3zm-323-18.6c-1.4 0.7-3.3 2.9-4.2 4.9-1.5 3-1.8 6.5-1.8 19.9 0 13.9 0.3 16.8 1.9 19.8 1 1.9 2.9 4 4.2 4.7 1.3 0.7 4.3 1.2 6.7 1.2 2.3 0.1 5.6-0.7 7.3-1.7 1.7-1 3.7-3.3 4.5-5.2 1.1-2.6 1.5-7.8 1.4-19.3 0-11.9-0.3-16.5-1.5-18.7-0.8-1.7-2.7-4-4.2-5.1-1.9-1.4-4.2-2-7.3-1.9-2.5 0-5.6 0.6-7 1.4zm34 91.3c1.9 0.3 5.1 1.2 7 2.1 1.8 0.9 4.5 3.4 6 5.6 2.4 3.7 2.5 4.6 2.5 18 0 12.8-0.2 14.4-2.2 17.8-1.3 2.2-4 4.6-6.3 5.8-2.7 1.3-6 2-10.2 2-4.9 0-7-0.5-9.7-2.3-1.9-1.2-4.3-3.5-5.5-5.1-1.9-2.5-2.1-4.1-2.1-18.1 0-13.8 0.2-15.7 2-18.1 1.1-1.5 3.1-3.6 4.5-4.6 1.4-1.1 4.3-2.3 6.5-2.8 2.2-0.4 5.6-0.6 7.5-0.3zm83.2-0.7h6.3l8.4 22.2c4.7 12.3 9.1 23.7 11.1 28.8h-10.5l-2.5-8-19.3 0.5-1.2 3.5c-1.1 3.3-1.4 3.5-6.6 3.8-4.2 0.3-5.2 0.1-4.8-1 0.4-0.7 4.8-12.3 9.9-25.6zm-217.2 1h10v51h-10zm22 0h11.5l18 36.5 0.4-36.5h9.1v51h-12l-17.9-36.5-0.1 36.5h-9zm48 0h37v9h-14v42h-9l-0.5-41.5-13.5-0.5zm55.3 11.4c-2.8 2.4-2.8 2.6-2.8 14.1 0 11.5 0 11.7 2.7 14.1 1.7 1.4 4 2.4 5.9 2.4 2.1 0 4-0.9 6-3 2.8-2.9 2.9-3.3 2.9-13 0-6.4-0.5-11-1.4-12.7-0.7-1.6-2.1-3.1-3-3.5-0.9-0.5-2.9-0.8-4.6-0.8-1.6 0-4.1 1.1-5.7 2.4zm94.4 5.7c-0.4 0.8-1.5 4.1-2.5 7.3-1 3.3-2 6.5-2 7.3-0.2 1 1.3 1.3 5.3 1.3 3 0 5.5-0.3 5.5-0.7 0-0.5-1.2-4.2-2.6-8.3-1.4-4.1-2.6-7.7-2.8-7.9-0.1-0.2-0.5 0.3-0.9 1zm489.3 113.9h8v36h21v8h-29zm36 0h9v44h-9zm16.2 0h8.8l4.1 13.3c2.2 7.2 4.4 13.6 4.7 14 0.4 0.4 2.7-5.6 9.7-27.3h4.2c2.9 0 4.2 0.4 3.9 1.3-0.2 0.6-3.4 10.6-14.1 42.8l-6.9-0.6zm42.8 0h29v8h-21v10h18v8h-18v10h21v8h-29zm11.5 62.5c5.1 0.3 8.8 1.3 13.3 3.5 4.3 2.1 7.2 4.3 9.3 7.3 1.7 2.3 3.8 5.8 4.7 7.7 1.4 2.9 1.7 7.2 1.7 26 0 20.7-0.2 22.9-2.1 27-1.1 2.5-3.6 6.2-5.5 8.4-1.8 2.1-5.9 5-8.9 6.5-4.8 2.3-6.7 2.6-15 2.6-8.2 0-10.2-0.3-15-2.6-3-1.5-7-4.4-8.9-6.5-1.9-2.2-4.4-5.9-5.5-8.4-1.8-4-2.1-6.8-2.4-24-0.2-11.6 0.1-21.5 0.7-24.5 0.6-2.7 2.5-7.1 4.1-9.7 1.7-2.7 5-6.1 7.5-7.8 2.5-1.6 6.9-3.7 9.8-4.5 3.4-1 7.7-1.3 12.2-1zm244 0c5.1 0.3 8.5 1.2 12.5 3.2 3.5 1.8 6.7 4.5 9.2 7.8 2.1 2.8 4.7 7.7 5.8 11 1.1 3.3 2 6.6 2 7.3 0 0.9-2.3 1.2-16.5 1.2l-2.2-5c-1.4-3.1-3.5-5.7-5.5-7-1.8-1.1-5-2-7-2-2.1 0-5.4 0.8-7.4 1.8-2.3 1.1-4.2 3.1-5.4 5.7-1.7 3.4-2 6.3-1.9 20.5 0 14.3 0.2 17.1 1.9 20.8 1.2 2.5 3.2 4.8 5 5.7 1.7 0.8 4.9 1.5 7.3 1.5 2.5 0 5.6-0.8 7.5-2 1.9-1.2 4-3.8 7.2-11h17l-0.6 3.3c-0.4 1.7-1.5 5.2-2.6 7.7-1.1 2.5-3.5 6.4-5.4 8.8-2.1 2.6-5.6 5.3-9.1 7-5 2.3-7 2.7-14.8 2.7-6.8-0.1-10.1-0.6-13.5-2.1-2.5-1.1-6.3-3.8-8.4-6-2.2-2.1-4.9-5.9-6-8.4-1.8-4-2.1-6.9-2.4-25-0.3-17.1-0.1-21.5 1.3-26.5 0.9-3.3 2.9-7.6 4.3-9.5 1.5-1.9 3.3-4.1 4.2-4.8 0.8-0.7 3.2-2.1 5.3-3.2 2-1.1 5.4-2.4 7.5-3 2-0.5 6.9-0.7 10.7-0.5zm-436.3 0.3l21.7 0.4c17.6 0.3 22.3 0.7 25.4 2.1 2 0.9 5.2 3 7 4.6 1.8 1.5 4.3 5.2 5.6 8.2 1.7 3.9 2.3 7.3 2.3 11.9 0 4.6-0.6 8.1-2.3 11.9-1.4 3.3-4 6.8-6.4 8.8-2.2 1.9-6.2 4.1-9 4.9-3.1 0.9-9.3 1.4-28.5 1.4v34h-16zm79 0l22.7 0.4c20.9 0.3 22.9 0.4 26.6 2.4 2.2 1.2 5 3.2 6.2 4.5 1.2 1.3 3.1 4.4 4.3 6.9 1.5 3.3 2 6.6 2 12.5 0.1 6.8-0.3 8.8-2.7 13.4-1.7 3.4-4.3 6.6-6.8 8.3-2.2 1.6-4.5 2.8-5.2 2.8-0.7 0-1.2 0.5-1.2 1.2 0 0.7 4.5 8.9 19.9 35.3l-9.7 0.3c-7.4 0.2-10-0.1-10.8-1.1-0.5-0.8-5-8.7-19-33.7h-10.5v35h-16zm163.1-0.1l19.7 0.4c17 0.4 20.4 0.7 25.1 2.6 3 1.2 7.2 3.7 9.3 5.7 2 1.9 4.7 5.4 6 7.8 2.1 3.9 2.2 5.6 2.5 25.7 0.2 18.2 0 22.3-1.4 26.5-1 2.8-3.6 7-5.9 9.5-2.3 2.5-6.6 5.6-9.6 7-5.1 2.3-6.5 2.5-45.9 3zm96.8 0.2v30.3c0 28 0.2 30.5 2 34.5 1.3 2.7 3.2 4.8 5.2 5.8 1.9 1 5.6 1.6 8.8 1.6 3.4-0.1 6.6-0.8 8.4-1.9 1.6-1 3.7-3.4 4.7-5.3 1.7-3.2 1.9-6.1 1.9-65h16.7l-0.2 32.8c-0.1 27.7-0.4 33.4-1.8 37.2-0.9 2.5-3.4 6.5-5.5 9-2.3 2.7-6 5.5-9.3 7-4.6 2.1-6.9 2.5-15.4 2.5-8.5 0-10.8-0.4-15.4-2.5-3.3-1.5-7-4.3-9.3-7-2.2-2.5-4.6-6.7-5.5-9.5-1.3-4-1.7-11.1-2-35.8-0.2-16.9-0.2-31.4 0.1-32.2 0.4-1.1 2.4-1.5 16.6-1.5zm134 0h64v16h-24v72h-16l-0.5-71.5-23.5-0.5zm-457 38c23.9-0.5 24.2-0.5 26.6-3.2 1.8-2.1 2.4-3.9 2.4-7.8 0-3.8-0.6-5.6-2.4-7.7-2.4-2.7-2.8-2.8-14.4-3.1l-12-0.3zm79-1c23.1 0 23.1-0.1 26-3 2.4-2.5 3-3.9 3-7.8 0-3.7-0.5-5.3-2.5-7.5-2.5-2.7-2.7-2.7-14.5-2.7h-12zm86.9-18.8c-1.9 1.3-4.2 3.9-5.2 5.8-1.4 2.9-1.7 6.2-1.7 19.7 0 11.5 0.4 17.2 1.3 19.5 0.8 1.8 2.6 4.4 4.1 5.8 2.4 2.1 3.7 2.5 9.6 2.5 5.9 0 7.2-0.4 9.5-2.5 1.5-1.4 3.3-4 4.1-5.8 1-2.3 1.4-8 1.4-19.5 0-13.5-0.3-16.8-1.8-19.7-0.9-1.9-3.3-4.5-5.2-5.8-2.4-1.6-5-2.3-8.1-2.3q-4.6 0.1-8 2.3zm76.1 53.8c18-0.5 21.2-1 23.3-2.3 1.5-1 3.6-3.2 4.7-5 1.8-2.9 2-5 2-20.7 0-15.8-0.2-17.9-2-20.8-1.1-1.8-3.9-4.1-6.3-5.2-3.2-1.5-6.4-2-13-2h-8.7z"/></svg>